<svg id="visual" viewBox="0 0 960 540" width="960" height="540" xmlns="http://www.w3.org/2000/svg" xmlns:xlink="http://www.w3.org/1999/xlink" version="1.1"><rect x="0" y="0" width="960" height="540" fill="#1b1b1b"></rect><path d="M0 360L14.5 333.7C29 307.3 58 254.7 87.2 239C116.3 223.3 145.7 244.7 174.8 240.5C204 236.3 233 206.7 262 215.8C291 225 320 273 349 281.3C378 289.7 407 258.3 436.2 235.7C465.3 213 494.7 199 523.8 195.2C553 191.3 582 197.7 611 221.3C640 245 669 286 698 296.7C727 307.3 756 287.7 785.2 273.3C814.3 259 843.7 250 872.8 256.2C902 262.3 931 283.7 945.5 294.3L960 305L960 541L945.5 541C931 541 902 541 872.8 541C843.7 541 814.3 541 785.2 541C756 541 727 541 698 541C669 541 640 541 611 541C582 541 553 541 523.8 541C494.7 541 465.3 541 436.2 541C407 541 378 541 349 541C320 541 291 541 262 541C233 541 204 541 174.8 541C145.7 541 116.3 541 87.2 541C58 541 29 541 14.5 541L0 541Z" fill="#810ca8"></path><path d="M0 219L14.5 235.5C29 252 58 285 87.2 311.8C116.3 338.7 145.7 359.3 174.8 354.2C204 349 233 318 262 308.8C291 299.7 320 312.3 349 313.8C378 315.3 407 305.7 436.2 303.7C465.3 301.7 494.7 307.3 523.8 316.2C553 325 582 337 611 337.7C640 338.3 669 327.7 698 326.8C727 326 756 335 785.2 343.8C814.3 352.7 843.7 361.3 872.8 370.7C902 380 931 390 945.5 395L960 400L960 541L945.5 541C931 541 902 541 872.8 541C843.7 541 814.3 541 785.2 541C756 541 727 541 698 541C669 541 640 541 611 541C582 541 553 541 523.8 541C494.7 541 465.3 541 436.2 541C407 541 378 541 349 541C320 541 291 541 262 541C233 541 204 541 174.8 541C145.7 541 116.3 541 87.2 541C58 541 29 541 14.5 541L0 541Z" fill="#8c19b3"></path><path d="M0 262L14.5 263.2C29 264.3 58 266.7 87.2 292.5C116.3 318.3 145.7 367.7 174.8 393C204 418.3 233 419.7 262 420.7C291 421.7 320 422.3 349 398.8C378 375.3 407 327.7 436.2 318.5C465.3 309.3 494.7 338.7 523.8 357.3C553 376 582 384 611 376.5C640 369 669 346 698 328.7C727 311.3 756 299.7 785.2 298.8C814.3 298 843.7 308 872.8 305.3C902 302.7 931 287.3 945.5 279.7L960 272L960 541L945.5 541C931 541 902 541 872.8 541C843.7 541 814.3 541 785.2 541C756 541 727 541 698 541C669 541 640 541 611 541C582 541 553 541 523.8 541C494.7 541 465.3 541 436.2 541C407 541 378 541 349 541C320 541 291 541 262 541C233 541 204 541 174.8 541C145.7 541 116.3 541 87.2 541C58 541 29 541 14.5 541L0 541Z" fill="#9624bd"></path><path d="M0 390L14.5 395.5C29 401 58 412 87.2 416C116.3 420 145.7 417 174.8 408.2C204 399.3 233 384.7 262 385.2C291 385.7 320 401.3 349 393.3C378 385.3 407 353.7 436.2 342.5C465.3 331.3 494.7 340.7 523.8 340.3C553 340 582 330 611 325.2C640 320.3 669 320.7 698 322.8C727 325 756 329 785.2 343.3C814.3 357.7 843.7 382.3 872.8 400.8C902 419.3 931 431.7 945.5 437.8L960 444L960 541L945.5 541C931 541 902 541 872.8 541C843.7 541 814.3 541 785.2 541C756 541 727 541 698 541C669 541 640 541 611 541C582 541 553 541 523.8 541C494.7 541 465.3 541 436.2 541C407 541 378 541 349 541C320 541 291 541 262 541C233 541 204 541 174.8 541C145.7 541 116.3 541 87.2 541C58 541 29 541 14.5 541L0 541Z" fill="#a12dc8"></path><path d="M0 434L14.5 425.2C29 416.3 58 398.7 87.2 397.2C116.3 395.7 145.7 410.3 174.8 409.8C204 409.3 233 393.7 262 387.3C291 381 320 384 349 387C378 390 407 393 436.2 406.3C465.3 419.7 494.7 443.3 523.8 440C553 436.7 582 406.3 611 400.2C640 394 669 412 698 427.3C727 442.7 756 455.3 785.2 456C814.3 456.7 843.7 445.3 872.8 432.5C902 419.7 931 405.3 945.5 398.2L960 391L960 541L945.5 541C931 541 902 541 872.8 541C843.7 541 814.3 541 785.2 541C756 541 727 541 698 541C669 541 640 541 611 541C582 541 553 541 523.8 541C494.7 541 465.3 541 436.2 541C407 541 378 541 349 541C320 541 291 541 262 541C233 541 204 541 174.8 541C145.7 541 116.3 541 87.2 541C58 541 29 541 14.5 541L0 541Z" fill="#ac36d3"></path><path d="M0 410L14.5 417.5C29 425 58 440 87.2 447.5C116.3 455 145.7 455 174.8 449.8C204 444.7 233 434.3 262 429.3C291 424.3 320 424.7 349 421.3C378 418 407 411 436.2 415C465.3 419 494.7 434 523.8 442.7C553 451.3 582 453.7 611 455.5C640 457.3 669 458.7 698 451.2C727 443.7 756 427.3 785.2 424.5C814.3 421.7 843.7 432.3 872.8 442.2C902 452 931 461 945.5 465.5L960 470L960 541L945.5 541C931 541 902 541 872.8 541C843.7 541 814.3 541 785.2 541C756 541 727 541 698 541C669 541 640 541 611 541C582 541 553 541 523.8 541C494.7 541 465.3 541 436.2 541C407 541 378 541 349 541C320 541 291 541 262 541C233 541 204 541 174.8 541C145.7 541 116.3 541 87.2 541C58 541 29 541 14.5 541L0 541Z" fill="#b63fde"></path><path d="M0 471L14.5 473.7C29 476.3 58 481.7 87.2 486.2C116.3 490.7 145.7 494.3 174.8 496C204 497.7 233 497.3 262 494.2C291 491 320 485 349 482.2C378 479.3 407 479.7 436.2 476C465.3 472.3 494.7 464.7 523.8 467.7C553 470.7 582 484.3 611 492.2C640 500 669 502 698 497C727 492 756 480 785.2 474.3C814.3 468.7 843.7 469.3 872.8 475.2C902 481 931 492 945.5 497.5L960 503L960 541L945.5 541C931 541 902 541 872.8 541C843.7 541 814.3 541 785.2 541C756 541 727 541 698 541C669 541 640 541 611 541C582 541 553 541 523.8 541C494.7 541 465.3 541 436.2 541C407 541 378 541 349 541C320 541 291 541 262 541C233 541 204 541 174.8 541C145.7 541 116.3 541 87.2 541C58 541 29 541 14.5 541L0 541Z" fill="#c147e9"></path></svg>