<svg id="visual" viewBox="0 0 960 540" width="960" height="540" xmlns="http://www.w3.org/2000/svg" xmlns:xlink="http://www.w3.org/1999/xlink" version="1.1"><path d="M0 131L17.8 126.5C35.7 122 71.3 113 106.8 106.7C142.3 100.3 177.7 96.7 213.2 95.7C248.7 94.7 284.3 96.3 320 90.8C355.7 85.3 391.3 72.7 426.8 73.7C462.3 74.7 497.7 89.3 533.2 99.3C568.7 109.3 604.3 114.7 640 112.8C675.7 111 711.3 102 746.8 93.8C782.3 85.7 817.7 78.3 853.2 85.5C888.7 92.7 924.3 114.3 942.2 125.2L960 136L960 0L942.2 0C924.3 0 888.7 0 853.2 0C817.7 0 782.3 0 746.8 0C711.3 0 675.7 0 640 0C604.3 0 568.7 0 533.2 0C497.7 0 462.3 0 426.8 0C391.3 0 355.7 0 320 0C284.3 0 248.7 0 213.2 0C177.7 0 142.3 0 106.8 0C71.3 0 35.7 0 17.8 0L0 0Z" fill="#1b1b1b"></path><path d="M0 190L17.8 181.8C35.7 173.7 71.3 157.3 106.8 155.5C142.3 153.7 177.7 166.3 213.2 161.8C248.7 157.3 284.3 135.7 320 118.7C355.7 101.7 391.3 89.3 426.8 103.8C462.3 118.3 497.7 159.7 533.2 177.7C568.7 195.7 604.3 190.3 640 189.3C675.7 188.3 711.3 191.7 746.8 189.8C782.3 188 817.7 181 853.2 187.3C888.7 193.7 924.3 213.3 942.2 223.2L960 233L960 134L942.2 123.2C924.3 112.3 888.7 90.7 853.2 83.5C817.7 76.3 782.3 83.7 746.8 91.8C711.3 100 675.7 109 640 110.8C604.3 112.7 568.7 107.3 533.2 97.3C497.7 87.3 462.3 72.7 426.8 71.7C391.3 70.7 355.7 83.3 320 88.8C284.3 94.3 248.7 92.7 213.2 93.7C177.7 94.7 142.3 98.3 106.8 104.7C71.3 111 35.7 120 17.8 124.5L0 129Z" fill="#341f3b"></path><path d="M0 352L17.8 330.3C35.7 308.7 71.3 265.3 106.8 265.3C142.3 265.3 177.7 308.7 213.2 319.5C248.7 330.3 284.3 308.7 320 319.5C355.7 330.3 391.3 373.7 426.8 386.3C462.3 399 497.7 381 533.2 366.5C568.7 352 604.3 341 640 323.8C675.7 306.7 711.3 283.3 746.8 278C782.3 272.7 817.7 285.3 853.2 313.3C888.7 341.3 924.3 384.7 942.2 406.3L960 428L960 231L942.2 221.2C924.3 211.3 888.7 191.7 853.2 185.3C817.7 179 782.3 186 746.8 187.8C711.3 189.7 675.7 186.3 640 187.3C604.3 188.3 568.7 193.7 533.2 175.7C497.7 157.7 462.3 116.3 426.8 101.8C391.3 87.3 355.7 99.7 320 116.7C284.3 133.7 248.7 155.3 213.2 159.8C177.7 164.3 142.3 151.7 106.8 153.5C71.3 155.3 35.7 171.7 17.8 179.8L0 188Z" fill="#4d205d"></path><path d="M0 401L17.8 392C35.7 383 71.3 365 106.8 366.7C142.3 368.3 177.7 389.7 213.2 402.2C248.7 414.7 284.3 418.3 320 424.7C355.7 431 391.3 440 426.8 448.2C462.3 456.3 497.7 463.7 533.2 464.7C568.7 465.7 604.3 460.3 640 429.7C675.7 399 711.3 343 746.8 328.5C782.3 314 817.7 341 853.2 369C888.7 397 924.3 426 942.2 440.5L960 455L960 426L942.2 404.3C924.3 382.7 888.7 339.3 853.2 311.3C817.7 283.3 782.3 270.7 746.8 276C711.3 281.3 675.7 304.7 640 321.8C604.3 339 568.7 350 533.2 364.5C497.7 379 462.3 397 426.8 384.3C391.3 371.7 355.7 328.3 320 317.5C284.3 306.7 248.7 328.3 213.2 317.5C177.7 306.7 142.3 263.3 106.8 263.3C71.3 263.3 35.7 306.7 17.8 328.3L0 350Z" fill="#671c82"></path><path d="M0 541L17.8 541C35.7 541 71.3 541 106.8 541C142.3 541 177.7 541 213.2 541C248.7 541 284.3 541 320 541C355.7 541 391.3 541 426.8 541C462.3 541 497.7 541 533.2 541C568.7 541 604.3 541 640 541C675.7 541 711.3 541 746.8 541C782.3 541 817.7 541 853.2 541C888.7 541 924.3 541 942.2 541L960 541L960 453L942.2 438.5C924.3 424 888.7 395 853.2 367C817.7 339 782.3 312 746.8 326.5C711.3 341 675.7 397 640 427.7C604.3 458.3 568.7 463.7 533.2 462.7C497.7 461.7 462.3 454.3 426.8 446.2C391.3 438 355.7 429 320 422.7C284.3 416.3 248.7 412.7 213.2 400.2C177.7 387.7 142.3 366.3 106.8 364.7C71.3 363 35.7 381 17.8 390L0 399Z" fill="#810ca8"></path></svg>